# xmcd
#
# Track frame offsets:
#	150
#	47285
#	98583
#	148450
#	171318
#	196665
#	232208
#	260180
#
# Disc length: 3768 seconds
#
# Revision: 0
# Processed by: cddbd v1.5.2PL0 Copyright (c) Steve Scherf et al.
# Submitted via: EasyCDDAExtractor 16.0.6.1
#
DISCID=720eb608
DTITLE=Ανθολ. βυζαντ. κοσμικής μουσικής-Χρ. Χάλαρης 1
DYEAR=1990
DGENRE=Βυζαντινή κοσμική
TTITLE0=Άνευ ερμηνευτού - Work by Chryssafis, "the lampadarios"
TTITLE1=Χορωδία - By Gazis Lampadarios
TTITLE2=Άνευ ερμηνευτού - The so-called Tataric kratima
TTITLE3=Άγνωστος - Sympotic song, "Wild bird become tame"
TTITLE4=Άνευ ερμηνευτού - "Organikon, Sourouliston, papadikon" by Master Ioann
TTITLE4=is Glykys
TTITLE5=Χορωδία - I hoped and still hope (post-byzantine secular song)
TTITLE6=Άνευ ερμηνευτού - By the same composer (Nikolaos Ithikos) the so-calle
TTITLE6=d "Military"
TTITLE7=Χορωδία - A border guard was building a castle
EXTD=
EXTT0=
EXTT1=
EXTT2=
EXTT3=
EXTT4=
EXTT5=
EXTT6=
EXTT7=
PLAYORDER=
